<?xml version="1.0" standalone="no"?>
<!DOCTYPE svg PUBLIC "-//W3C//DTD SVG 20010904//EN"
 "http://www.w3.org/TR/2001/REC-SVG-20010904/DTD/svg10.dtd">
<svg version="1.0" xmlns="http://www.w3.org/2000/svg"
 width="300.000000pt" height="300.000000pt" viewBox="0 0 300.000000 300.000000"
 preserveAspectRatio="xMidYMid meet">
<metadata>
Created by potrace 1.11, written by Peter Selinger 2001-2013
</metadata>
<g transform="translate(0.000000,300.000000) scale(0.100000,-0.100000)"
fill="#000000" stroke="none">
<path d="M920 2150 c-155 -21 -272 -81 -391 -200 -99 -99 -156 -200 -185 -326
-74 -336 172 -664 537 -714 76 -11 90 -16 149 -60 302 -223 593 -366 847 -417
108 -21 372 -24 483 -4 104 18 273 61 284 72 19 18 -3 18 -99 -3 -134 -29
-381 -31 -505 -5 -253 54 -502 167 -805 364 l-99 65 62 23 c93 34 168 82 246
161 82 81 127 152 163 256 116 325 -86 685 -435 772 -75 19 -184 26 -252 16z
m120 -51 c160 -26 305 -137 378 -291 56 -117 67 -171 66 -328 0 -118 -3 -144
-26 -206 -30 -84 -86 -173 -137 -215 -221 -183 -567 -124 -730 125 -58 89 -89
182 -103 304 -34 310 112 552 366 607 77 17 105 17 186 4z"/>
<path d="M1715 1845 c0 -58 3 -105 7 -105 4 0 13 12 20 27 7 14 26 36 41 47
26 19 45 21 188 24 l159 4 0 -401 c0 -486 4 -468 -102 -486 -82 -13 -28 -20
167 -20 200 0 256 8 156 21 -34 4 -57 14 -73 31 l-23 25 -3 414 -3 414 143 -1
c172 0 206 -9 231 -61 10 -21 23 -38 28 -38 5 0 9 40 9 89 0 49 3 96 6 105 3
9 1 16 -4 16 -6 0 -13 -9 -17 -20 -12 -37 -61 -41 -478 -38 l-399 3 -22 28
c-12 15 -24 27 -26 27 -3 0 -5 -47 -5 -105z"/>
</g>
</svg>
